<svg id="calendar" xmlns="http://www.w3.org/2000/svg" viewBox="0 0 17.9 15.579">
  <defs>
    <style>
      .cls-1 {
        fill: #0b7074;
      }
    </style>
  </defs>
  <g id="Group_128" data-name="Group 128" transform="translate(0 0)">
    <path id="Path_20" data-name="Path 20" class="cls-1" d="M283.252,214.6h-.866v-1.81a.393.393,0,1,0-.787,0V215a.372.372,0,0,0,.393.393h1.259a.372.372,0,0,0,.393-.393A.394.394,0,0,0,283.252,214.6Z" transform="translate(-267.752 -203.115)"/>
    <path id="Path_21" data-name="Path 21" class="cls-1" d="M16.878,32.963v-7.2h0a.789.789,0,0,0-.787-.787H14.6v-.984a.393.393,0,1,0-.787,0v.984H11.724v-.984a.393.393,0,0,0-.787,0v.984H8.852v-.984a.393.393,0,0,0-.787,0v.984H5.98v-.984a.393.393,0,0,0-.787,0v.984H3.029v-.984a.372.372,0,0,0-.393-.393.372.372,0,0,0-.393.393v.984H.787A.789.789,0,0,0,0,25.764v10.9a.789.789,0,0,0,.787.787H11.094A3.74,3.74,0,0,0,14.2,39.179a3.694,3.694,0,0,0,3.7-3.7A3.569,3.569,0,0,0,16.878,32.963ZM.708,25.764H2.282v.984a.372.372,0,0,0,.393.393.372.372,0,0,0,.393-.393v-.984H5.154v.984a.393.393,0,0,0,.787,0v-.984H8.026v.984a.393.393,0,0,0,.787,0v-.984H10.9v.984a.393.393,0,0,0,.787,0v-.984H13.77v.984a.393.393,0,0,0,.787,0v-.984h1.495v1.928H.708S.708,25.764.708,25.764ZM10.74,36.622H.787V28.478H16.13v3.816a3.528,3.528,0,0,0-1.888-.551,3.694,3.694,0,0,0-3.7,3.7A3.906,3.906,0,0,0,10.74,36.622Zm3.5,1.77a2.911,2.911,0,1,1,2.911-2.911A2.9,2.9,0,0,1,14.242,38.392Z" transform="translate(0 -23.6)"/>
  </g>
</svg>
