<?xml version="1.0" encoding="iso-8859-1"?>
<!-- Generator: Adobe Illustrator 19.0.0, SVG Export Plug-In . SVG Version: 6.00 Build 0)  -->
<svg xmlns="http://www.w3.org/2000/svg" xmlns:xlink="http://www.w3.org/1999/xlink" version="1.1" id="Capa_1" x="0px" y="0px" viewBox="0 0 368 368" style="enable-background:new 0 0 368 368;" xml:space="preserve" width="512px" height="512px">
<g>
	<g>
		<path d="M367.84,151.208c-0.064-0.624-0.16-1.224-0.368-1.816c-0.152-0.424-0.344-0.8-0.56-1.184    c-0.152-0.28-0.216-0.584-0.4-0.848l-80-112C285.008,33.248,282.584,32,280,32H88c-2.584,0-5.008,1.248-6.512,3.352l-80,112    c-0.192,0.272-0.256,0.584-0.416,0.872c-0.208,0.376-0.4,0.744-0.544,1.152c-0.216,0.608-0.312,1.216-0.376,1.84    C0.128,151.488,0,151.72,0,152c0,0.104,0.056,0.192,0.064,0.296c0.024,0.736,0.208,1.44,0.432,2.144    c0.08,0.256,0.096,0.528,0.2,0.768c0.384,0.872,0.92,1.696,1.624,2.408c0.008,0.016,0.016,0.032,0.032,0.04l176,176    c0.128,0.128,0.288,0.168,0.424,0.28c0.536,0.472,1.12,0.856,1.752,1.168c0.248,0.12,0.472,0.272,0.728,0.36    C182.12,335.784,183.04,336,184,336s1.88-0.216,2.744-0.536c0.256-0.096,0.48-0.24,0.728-0.36c0.64-0.312,1.224-0.696,1.752-1.168    c0.128-0.112,0.296-0.152,0.424-0.28L365.64,157.664c0.032-0.032,0.048-0.08,0.08-0.112c0.672-0.696,1.2-1.488,1.576-2.336    c0.112-0.248,0.12-0.528,0.208-0.784c0.224-0.696,0.4-1.4,0.432-2.128c0.008-0.112,0.064-0.2,0.064-0.304    C368,151.72,367.872,151.48,367.84,151.208z M92.12,48h78.096l-54.856,96H23.544L92.12,48z M184,56.128L234.216,144H133.784    L184,56.128z M27.312,160h87.08l49.76,136.848L27.312,160z M184,304.592L131.424,160h105.16L184,304.592z M203.84,296.848    L253.6,160h87.088L203.84,296.848z M252.64,144l-54.856-96h78.096l68.576,96H252.64z" fill="#0b7074"/>
	</g>
</g>
<g>
</g>
<g>
</g>
<g>
</g>
<g>
</g>
<g>
</g>
<g>
</g>
<g>
</g>
<g>
</g>
<g>
</g>
<g>
</g>
<g>
</g>
<g>
</g>
<g>
</g>
<g>
</g>
<g>
</g>
</svg>
