<svg xmlns="http://www.w3.org/2000/svg" viewBox="0 0 20.338 21.263">
  <defs>
    <style>
      .cls-1 {
        fill: #f8dd2d;
        stroke: #f8dd2d;
        stroke-miterlimit: 10;
      }
    </style>
  </defs>
  <g id="phone" transform="translate(0.503 0.517)">
    <g id="Layer_1" data-name="Layer 1" transform="translate(0 0)">
      <path id="Path_10" data-name="Path 10" class="cls-1" d="M14.524,20.744a9.553,9.553,0,0,1-5.388-2.029c-.157-.144-4.158-2.654-7.512-9.191C.43,7.095.192,5.052.9,3.449A5.713,5.713,0,0,1,4.592.535.925.925,0,0,1,5.616.9L7.664,3.866A.877.877,0,0,1,7.3,5.1l-1.639.961a.449.449,0,0,0-.22.364c-.225,6.169,6.308,9.272,7.633,9.829a.449.449,0,0,0,.422-.045l2.137-1.54a.579.579,0,0,1,.6-.027l3.17,1.836a.858.858,0,0,1,.4.543.759.759,0,0,1-.1.606,6.212,6.212,0,0,1-4.239,3.044,5.653,5.653,0,0,1-.947.072ZM4.853.768A.629.629,0,0,0,4.669.8,5.326,5.326,0,0,0,1.176,3.556C.5,5.083.727,7.05,1.876,9.393c3.381,6.6,7.346,9.07,7.382,9.092h0c.031,0,3.049,2.407,6.156,1.9a5.931,5.931,0,0,0,4.041-2.927.489.489,0,0,0,.063-.4.584.584,0,0,0-.278-.373l-3.17-1.836a.305.305,0,0,0-.332,0l-2.115,1.58a.7.7,0,0,1-.682.076c-1.347-.57-8.019-3.74-7.79-10.089h0a.709.709,0,0,1,.359-.588L7.188,4.89a.629.629,0,0,0,.3-.377.62.62,0,0,0-.054-.48L5.4,1.055A.669.669,0,0,0,4.853.768Z" transform="translate(-0.504 -0.498)"/>
    </g>
  </g>
</svg>
