<svg xmlns="http://www.w3.org/2000/svg" viewBox="0 0 518.25 106.91"><defs><style>.cls-1{isolation:isolate;}.cls-10,.cls-11,.cls-12,.cls-13,.cls-14,.cls-15,.cls-16,.cls-17,.cls-18,.cls-19,.cls-2,.cls-20,.cls-21,.cls-22,.cls-23,.cls-24,.cls-25,.cls-26,.cls-27,.cls-28,.cls-29,.cls-3,.cls-30,.cls-31,.cls-32,.cls-33,.cls-34,.cls-35,.cls-36,.cls-38,.cls-39,.cls-4,.cls-40,.cls-41,.cls-42,.cls-43,.cls-44,.cls-45,.cls-46,.cls-47,.cls-48,.cls-49,.cls-5,.cls-50,.cls-51,.cls-52,.cls-53,.cls-54,.cls-55,.cls-56,.cls-57,.cls-58,.cls-59,.cls-6,.cls-60,.cls-61,.cls-62,.cls-63,.cls-64,.cls-65,.cls-66,.cls-67,.cls-68,.cls-69,.cls-7,.cls-70,.cls-71,.cls-8,.cls-9{fill:none;stroke-linecap:round;stroke-miterlimit:10;}.cls-2,.cls-38{stroke:#30b5b4;}.cls-2{stroke-width:0.5px;}.cls-3,.cls-39{stroke:#2eadb5;}.cls-3{stroke-width:0.49px;}.cls-4,.cls-40{stroke:#2ca5b6;}.cls-4{stroke-width:0.47px;}.cls-41,.cls-5{stroke:#2a9db8;}.cls-5{stroke-width:0.46px;}.cls-42,.cls-6{stroke:#2895b9;}.cls-6{stroke-width:0.44px;}.cls-43,.cls-7{stroke:#268dba;}.cls-7{stroke-width:0.43px;}.cls-44,.cls-8{stroke:#2485bb;}.cls-8{stroke-width:0.41px;}.cls-45,.cls-9{stroke:#227dbd;}.cls-9{stroke-width:0.4px;}.cls-10,.cls-46{stroke:#2075be;}.cls-10{stroke-width:0.38px;}.cls-11,.cls-47{stroke:#1f6ebf;}.cls-11{stroke-width:0.37px;}.cls-12,.cls-48{stroke:#1d66c0;}.cls-12{stroke-width:0.35px;}.cls-13,.cls-49{stroke:#1b5ec2;}.cls-13{stroke-width:0.34px;}.cls-14,.cls-50{stroke:#1956c3;}.cls-14{stroke-width:0.32px;}.cls-15,.cls-51{stroke:#174ec4;}.cls-15{stroke-width:0.31px;}.cls-16,.cls-52{stroke:#1546c5;}.cls-16{stroke-width:0.29px;}.cls-17,.cls-53{stroke:#133ec7;}.cls-17{stroke-width:0.28px;}.cls-18,.cls-54{stroke:#1136c8;}.cls-18{stroke-width:0.26px;}.cls-19{stroke:#0f2ec9;}.cls-19,.cls-38,.cls-39,.cls-40,.cls-41,.cls-42,.cls-43,.cls-44,.cls-45,.cls-46,.cls-47,.cls-48,.cls-49,.cls-50,.cls-51,.cls-52,.cls-53,.cls-54,.cls-55,.cls-56,.cls-57,.cls-58,.cls-59,.cls-60,.cls-61,.cls-62,.cls-63,.cls-64,.cls-65,.cls-66,.cls-67,.cls-68,.cls-69,.cls-70,.cls-71{stroke-width:0.25px;}.cls-20,.cls-55{stroke:#1d34cb;}.cls-20{stroke-width:0.29px;}.cls-21,.cls-56{stroke:#2b3acd;}.cls-21{stroke-width:0.34px;}.cls-22,.cls-57{stroke:#3941d0;}.cls-22{stroke-width:0.38px;}.cls-23,.cls-58{stroke:#4747d2;}.cls-23{stroke-width:0.43px;}.cls-24,.cls-59{stroke:#564dd4;}.cls-24{stroke-width:0.47px;}.cls-25,.cls-60{stroke:#6453d6;}.cls-25{stroke-width:0.51px;}.cls-26,.cls-61{stroke:#7259d8;}.cls-26{stroke-width:0.56px;}.cls-27,.cls-62{stroke:#805fda;}.cls-27{stroke-width:0.6px;}.cls-28,.cls-63{stroke:#8e66dd;}.cls-28{stroke-width:0.65px;}.cls-29,.cls-64{stroke:#9c6cdf;}.cls-29{stroke-width:0.69px;}.cls-30,.cls-65{stroke:#aa72e1;}.cls-30{stroke-width:0.74px;}.cls-31,.cls-66{stroke:#b878e3;}.cls-31{stroke-width:0.78px;}.cls-32,.cls-67{stroke:#c77ee5;}.cls-32{stroke-width:0.82px;}.cls-33,.cls-68{stroke:#d584e7;}.cls-33{stroke-width:0.87px;}.cls-34,.cls-69{stroke:#e38bea;}.cls-34{stroke-width:0.91px;}.cls-35,.cls-70{stroke:#f191ec;}.cls-35{stroke-width:0.96px;}.cls-36,.cls-71{stroke:#ff97ee;}.cls-37{mix-blend-mode:overlay;}</style></defs><title>Asset 1mdpi</title><g class="cls-1"><g id="Layer_2" data-name="Layer 2"><g id="OBJECTS"><g id="_Group_" data-name="&lt;Group&gt;"><g id="_Group_2" data-name="&lt;Group&gt;"><path class="cls-2" d="M43.15,69.21C65,63.89,67.29,39.59,90.51,29.92c26.37-11,49.14,39.23,72.14,33.68,21.85-5.27,23.11-49.27,30.86-48.76,9.79.63,9,71,17.28,71.55,8.51.57,18.85-72.9,27.83-72.4,9.29.53,9,79.63,18.24,80,3.44.13,4.3-10.93,13-25.88,3.62-6.18,21.64-37,45.16-40.41C347.53,23,366.73,74,397.11,69.21c22.41-3.51,23.14-33,47.36-39.29C468,23.84,495.79,44.18,516.61,63.6"/><path class="cls-3" d="M516.7,62.86c-10.48-8-23.05-16.83-36.08-23.2-12.7-6.21-25.32-10.56-36.88-8.61-13.39,2.26-19.73,11.56-27,20.42-5.71,7-11.27,13.92-20.73,16.2-10.6,2.58-19.9-1.54-29.47-8.91-1.68-1.3-3.45-2.7-5.27-4.22C347.06,42.6,336.53,26.85,319.11,27a21.94,21.94,0,0,0-4.24.5c-14.94,3.05-28.3,18.15-36.27,28.61-4.28,5.61-7.49,9.85-8.76,11.42-9.9,12.2-9.79,22.44-13.25,22.32-4-.13-6.23-11-8.31-26.29-2.84-21.15-4.9-50.15-10.73-50.4-9.38-.43-19.24,73.73-28,73.18-4.64-.28-6.49-21.28-9.42-38.87-2.67-16-5.16-29.52-10.48-29.25-2,.1-3.51,2.67-5.37,6.44-6,12.14-10.83,33.83-28.3,37.85-21.69,5-43.72-41.86-69.32-30.65-22,9.61-24.34,32.69-45.11,38.24"/><path class="cls-4" d="M516.79,62.11c-10.49-6.33-23.36-13.88-36.85-19.86C467,36.5,454.48,31.3,443,32.18c-13.18,1-19.7,8.8-27.39,17.07-6.1,6.56-11.56,13.84-20.63,16.88-10.19,3.4-19.22.8-29.12-6.31-1.66-1.2-3.54-2.54-5.5-4.08-15.2-12-23.12-29.43-41.45-29.08a18.64,18.64,0,0,0-4.25.7c-14.57,3.84-28.34,20.29-36.09,30.13-4.15,5.25-7.22,8.83-8.8,9.51-8.41,11.38-10,18.88-13.46,18.77-4.07-.11-6.4-7.69-8.62-22.07-3-19.84-4.94-51.12-11.22-51.34-9.79-.33-19.16,74.51-28.18,74-4.94-.28-6.8-23-10.48-39.65-3.36-15.17-6.06-25.92-12.06-25-2.08.3-3.62,2.87-5.77,6.36-7.42,12-12.2,29.39-30.69,33.46-20.38,4.48-41.67-39.08-66.5-27.63C62.1,43.37,59.58,65.26,39.94,71"/><path class="cls-5" d="M516.88,61.37c-10.49-4.61-23.67-10.95-37.61-16.53-13.25-5.3-25.6-11.34-37-11.53-13-.23-19.67,6-27.82,13.72-6.5,6.14-11.85,13.78-20.54,17.55-9.77,4.25-18.51,3.15-28.76-3.71-1.64-1.09-3.62-2.37-5.72-3.93-16.14-12-21.46-31.17-40.7-30.63a15.61,15.61,0,0,0-4.26.89c-14.2,4.58-28.39,22.43-35.92,31.64-4,4.91-7.1,7.67-8.84,7.62-8.25,9.59-10.16,15.31-13.67,15.22-4.17-.11-6.6-4.43-8.93-17.87-3.21-18.51-5-52.1-11.72-52.26-10.18-.25-19.07,75.28-28.34,74.76-5.25-.28-7.1-24.62-11.55-40.42-4-14.29-6.94-22.36-13.62-20.85-2.17.49-3.78,3.08-6.18,6.28-9,11.94-13.56,25-33.09,29.07C123.56,64.41,103,24.08,79,35.78c-19.44,9.46-22.1,30.16-40.61,36.16"/><path class="cls-6" d="M517,60.63c-10.49-2.89-24-8-38.37-13.2-13.51-4.86-25.71-11.71-37-13C428.81,33,421.9,37.71,413.31,44.81,406.4,50.52,401.15,58.53,392.86,63c-9.35,5.09-17.79,5.49-28.41-1.11-1.61-1-3.7-2.21-5.94-3.79-17.07-12.06-19.8-32.92-40-32.18A13.62,13.62,0,0,0,314.29,27c-13.83,5.28-28.43,24.57-35.75,33.16-3.87,4.55-7,6.51-8.89,5.72-8.07,7.8-10.34,11.75-13.86,11.66-4.28-.09-6.79-1.17-9.26-13.65-3.38-17.19-5-53.08-12.2-53.2-10.59-.17-19,76.05-28.51,75.55C200.26,86,198.42,60,193.2,45.09c-4.69-13.4-7.82-18.84-15.18-16.65-2.25.67-4,3.27-6.58,6.19C160.84,46.51,156.51,55.15,136,59.32c-17.73,3.6-37.54-33.55-60.85-21.59-18.19,9.34-21,28.9-38.37,35.12"/><path class="cls-7" d="M517.05,59.89c-10.49-1.18-24.26-5.1-39.14-9.87C464.15,45.6,452.09,38,440.82,35.56c-12.51-2.65-19.64.51-28.67,7-7.32,5.28-12.45,13.66-20.35,18.91-8.94,5.94-17.05,7.82-28.07,1.48-1.58-.9-3.77-2-6.15-3.64-18-12.11-18.14-34.68-39.22-33.74a12.52,12.52,0,0,0-4.27,1.27c-13.46,5.95-28.47,26.72-35.57,34.69-3.73,4.19-6.86,5.34-8.93,3.82-7.91,6-10.53,8.18-14.07,8.1-4.38-.07-7,2.1-9.57-9.44C242.39,48.17,240.89,10,233.26,9.92c-11-.1-18.91,76.82-28.69,76.33-5.85-.27-7.67-27.92-13.68-42-5.35-12.51-8.71-15.33-16.74-12.45-2.34.84-4.21,3.45-7,6.11C154.83,49.74,150.87,54,129.27,58.25c-16.38,3.21-35.46-30.82-58-18.56-17,9.2-19.87,27.62-36.12,34.06"/><path class="cls-8" d="M517.14,59.14c-10.5.55-24.56-2.17-39.9-6.53-14-4-25.94-12.41-37.15-15.92-12.27-3.85-19.63-2.27-29.1,3.67C403.26,45.22,398.24,54,390.74,60,382.21,66.75,374.44,70.09,363,64c-1.55-.82-3.85-1.89-6.37-3.5-18.94-12.17-16.48-36.44-38.47-35.29a11.63,11.63,0,0,0-4.28,1.46c-13.11,6.57-28.51,28.85-35.39,36.21-3.59,3.83-6.75,4.18-9,1.91-7.75,4.24-10.72,4.62-14.28,4.56-4.48-.07-7.15,5.35-9.88-5.24-3.74-14.54-5.1-55-13.18-55-11.39,0-18.83,77.6-28.86,77.13-6.16-.27-8-29.58-14.75-42.74-6-11.61-9.6-11.84-18.3-8.25-2.43,1-4.46,3.61-7.4,6C148.73,52.92,145.24,52.9,122.6,57.18c-15,2.85-33.39-28.1-55.21-15.54-15.7,9-18.74,26.35-33.86,33"/><path class="cls-9" d="M517.23,58.4c-10.5,2.27-24.85.74-40.67-3.2-14.28-3.56-26.05-12.74-37.2-17.38-12-5-19.63-5-29.52.32-8.16,4.43-13,13.56-20.17,20.27-8.1,7.65-15.52,12.44-27.36,6.69a66.06,66.06,0,0,1-6.59-3.36C335.86,49.52,340.9,23.52,318,24.9a10.72,10.72,0,0,0-4.28,1.65c-12.76,7.17-28.55,31-35.22,37.72-3.45,3.48-6.64,3-9,0-7.58,2.45-10.91,1-14.49,1-4.58-.05-7.33,8.62-10.19-1-3.92-13.22-5.14-56-13.68-56-11.79.05-18.74,78.37-29,77.91-6.47-.27-8.21-31.22-15.81-43.51-6.64-10.71-10.52-8.37-19.88-4-2.51,1.16-4.72,3.76-7.79,6-16.05,11.42-19,7.19-42.68,11.52-13.69,2.51-31.31-25.4-52.39-12.52-14.47,8.85-17.62,25.09-31.62,32"/><path class="cls-10" d="M517.32,57.66c-10.51,4-25.14,3.65-41.43.13-14.54-3.14-26.17-13-37.26-18.85-11.81-6.17-19.62-7.82-29.95-3-8.57,4-13.34,13.51-20.07,20.95-7.69,8.5-14.74,14.72-27,9.28a54.59,54.59,0,0,1-6.8-3.21c-20.79-12.28-13.16-40-37-38.4a10.34,10.34,0,0,0-4.29,1.85c-12.42,7.74-28.58,33.13-35,39.24-3.31,3.13-6.52,1.86-9.06-1.88-7.42.66-11.1-2.51-14.7-2.56-4.68,0-7.51,11.89-10.5,3.19C240.12,52.49,239,7.38,230,7.47c-12.19.12-18.66,79.14-29.19,78.7C194.08,85.91,192.4,53.3,184,41.9c-7.26-9.83-11.44-4.93-21.44.14-2.6,1.32-5,3.89-8.2,5.87C136.33,59,134,50.65,109.25,55,96.92,57.23,80,32.3,59.69,45.55c-13.25,8.62-16.5,23.81-29.37,30.93"/><path class="cls-11" d="M517.41,56.91c-10.51,5.71-25.43,6.56-42.2,3.47C460.42,57.66,448.91,47,437.9,40.07c-11.59-7.32-19.62-10.61-30.37-6.37-9,3.55-13.64,13.46-20,21.63-7.27,9.36-13.94,17-26.67,11.88a48.21,48.21,0,0,1-7-3.07c-21.72-12.34-11.5-41.79-36.24-39.95-1.25.09-2.64.9-4.3,2C301.21,34.52,284.71,61.5,278.45,67c-3.16,2.77-6.4.7-9.11-3.78-7.25-1.13-11.28-6.08-14.9-6.11-4.78,0-7.69,15.15-10.81,7.4-4.26-10.57-5.22-58-14.66-57.85-12.59.2-18.58,79.92-29.36,79.49-7.08-.25-8.68-34.52-18-45-7.87-8.94-12.36-1.48-23,4.34-2.7,1.48-5.28,4-8.61,5.78-20,10.7-21.7-1.69-47.47,2.76-11,1.89-27.16-20.11-46.74-6.48-12,8.37-15.38,22.55-27.13,29.89"/><path class="cls-12" d="M517.5,56.17c-10.52,7.43-25.72,9.45-43,6.8-15-2.31-26.43-13.65-37.35-21.77-11.39-8.46-19.64-13.4-30.81-9.72-9.42,3.1-13.92,13.41-19.88,22.31C379.64,64,373.36,73,360.17,68.26a42.41,42.41,0,0,1-7.24-2.92c-22.64-12.41-9.85-43.59-35.5-41.5-1.23.1-2.63,1-4.31,2.23-11.8,8.83-28.63,37.41-34.69,42.28-3,2.41-6.28-.47-9.15-5.69C262.2,59.75,257.81,53,254.18,53c-4.89,0-7.87,18.42-11.13,11.61-4.43-9.24-5.27-59-15.16-58.77-13,.26-18.49,80.69-29.53,80.27-7.38-.25-8.89-36.18-19-45.81-8.46-8.06-13.29,2-24.56,8.54-2.79,1.63-5.56,4.1-9,5.7-22,10.19-23.06-6.14-49.88-1.63C86.3,54.52,70.81,35.4,52,49.45,41.15,57.54,37.72,70.73,27.11,78.3"/><path class="cls-13" d="M517.59,55.43c-10.52,9.14-26,12.34-43.73,10.13-15.3-1.91-26.58-13.94-37.41-23.23-11.19-9.6-19.64-16.2-31.24-13.07-9.84,2.65-14.21,13.36-19.79,23-6.41,11.08-12.31,21.41-26,17.08A37.32,37.32,0,0,1,352,66.53c-23.57-12.46-8.19-45.39-34.76-43-1.22.11-2.61,1.05-4.31,2.43-11.52,9.35-28.65,39.56-34.51,43.79-2.87,2.07-6.17-1.62-9.2-7.58-6.92-4.7-11.66-13.21-15.31-13.22-5,0-8,21.69-11.44,15.82-4.59-7.9-5.31-60-15.65-59.7-13.39.34-18.41,81.47-29.7,81.07C189.44,85.84,188,48.22,177,39.5c-9-7.19-14.23,5.4-26.13,12.74-2.88,1.79-5.83,4.19-9.41,5.62-24,9.57-24.4-10.58-52.27-6-8.24,1.34-23.06-15-41.1-.44-9.66,7.78-13.14,20-22.62,27.81"/><path class="cls-14" d="M517.68,54.69c-10.52,10.86-26.3,15.22-44.5,13.46-15.55-1.5-26.74-14.23-37.46-24.69-11-10.74-19.64-19-31.66-16.42-10.27,2.19-14.5,13.31-19.7,23.66-6,11.94-11.48,23.57-25.62,19.68a33.71,33.71,0,0,1-7.68-2.65c-24.49-12.53-6.53-47.21-34-44.6-1.2.11-2.6,1.12-4.31,2.62-11.25,9.87-28.66,41.71-34.34,45.31-2.71,1.72-6.06-2.79-9.24-9.48-6.75-6.49-11.85-16.78-15.52-16.77-5.1,0-8.2,25-11.76,20-4.74-6.58-5.34-60.95-16.13-60.63-13.8.4-18.33,82.23-29.87,81.85-8-.25-9.3-39.56-21.14-47.36-9.63-6.34-15.19,8.83-27.7,16.95-3,1.93-6.1,4.26-9.82,5.53-26,8.86-25.75-15-54.67-10.41-6.87,1.09-21-12.45-38.27,2.59-8.51,7.43-12,18.74-20.38,26.75"/><path class="cls-15" d="M517.77,53.94c-10.53,12.59-26.59,18.11-45.27,16.8C456.7,69.63,445.6,56.23,435,44.58c-10.82-11.86-19.64-21.8-32.09-19.77-10.69,1.75-14.78,13.27-19.6,24.35C377.74,62,372.65,74.84,358,71.43a31.2,31.2,0,0,1-7.9-2.5c-25.39-12.65-4.87-49-33.26-46.16-1.19.13-2.61,1.19-4.33,2.82-11,10.38-28.66,43.86-34.16,46.83-2.55,1.37-5-4.42-9.29-11.38-5.5-9-12-20.34-15.72-20.33-5.2,0-8.35,28.23-12.07,24.24C236.42,59.71,235.92,3,224.68,3.39c-14.2.45-18.25,83-30,82.64-8.3-.24-9.49-41.28-22.21-48.13-10.21-5.5-16.14,12.25-29.26,21.15-3.08,2.09-6.37,4.34-10.23,5.45-28,8.07-27.09-19.47-57.06-14.8-5.5.85-19.11-10-35.45,5.61-7.38,7-10.9,17.47-18.13,25.71"/><path class="cls-16" d="M517.86,53.2c-10.53,14.3-26.89,21-46,20.13-16.06-.71-27.08-14.8-37.57-27.62-10.65-13-19.63-24.6-32.52-23.12-11.11,1.29-15.06,13.21-19.5,25-5.13,13.65-9.81,27.74-24.92,24.87a28.75,28.75,0,0,1-8.12-2.36C322.88,57.42,346,19.25,316.68,22.42c-1.17.13-2.6,1.26-4.33,3-10.75,10.88-28.66,46-34,48.34-2.39,1-5.17-5.42-9.33-13.28C263.45,50,256.82,36.59,253.1,36.61c-5.3,0-8.5,31.49-12.38,28.46-5-3.93-5.42-62.94-17.12-62.49C209,3.09,205.44,86.36,193.39,86c-8.59-.24-9.68-43-23.27-48.9C159.33,32.42,153,52.78,139.3,62.45c-3.18,2.24-6.64,4.41-10.63,5.37C98.64,75,100.23,43.9,69.2,48.63,65.08,49.26,52,41,36.58,57.26,30.29,63.92,26.8,73.47,20.7,81.93"/><path class="cls-17" d="M518,52.46c-10.54,16-27.18,23.85-46.8,23.46-16.31-.32-27.26-15.09-37.62-29.08C423.05,32.7,413.9,19.42,400.59,20.37c-11.53.82-15.33,13.17-19.41,25.7-4.69,14.52-9,29.75-24.57,27.48a27,27,0,0,1-8.34-2.22C321,58.56,346.7,18.6,316.49,22.07c-1.15.13-2.6,1.32-4.33,3.2-10.53,11.39-28.66,48.22-33.82,49.86-2.22.71-5.28-6.45-9.37-15.18-5.68-12.12-12.4-27.47-16.14-27.43-5.4,0-8.64,34.73-12.69,32.66C235,62.55,234.67,1.26,222.53,1.76c-15,.59-18.08,84.56-30.38,84.22-8.9-.24-9.88-44.77-24.34-49.68-11.38-3.86-18.06,19.1-32.38,29.55a28.19,28.19,0,0,1-11,5.28c-32,6.29-29.78-28.35-61.86-23.57C59.78,48,47,42.19,32.72,59.22c-5.22,6.23-8.66,14.93-13.63,23.62"/><path class="cls-18" d="M518,51.72c-10.54,17.74-27.48,26.71-47.56,26.79C453.9,78.58,443,63.12,432.8,48s-19.62-30.26-33.37-29.82c-11.95.33-15.62,13.11-19.32,26.38C375.85,59.9,372,76.21,355.89,74.6a24.78,24.78,0,0,1-8.55-2.07c-28.18-12.82.08-54.6-31-50.82-1.14.14-2.61,1.39-4.35,3.4C301.65,37,283.31,75.55,278.33,76.49c-2.07.39-5.39-7.52-9.42-17.08-5.8-13.75-12.59-31-16.34-31-5.51.07-8.79,38-13,36.88C234.3,63.94,234.05.39,221.46.94c-15.4.67-18,85.33-30.55,85-9.21-.24-10.1-46.53-25.41-50.45-12-3.06-19,22.52-33.95,33.75a25.55,25.55,0,0,1-11.44,5.2c-33.93,5.32-31.12-32.8-64.25-28-1.38.2-14-3.19-27,14.68C24.65,67,21.33,74.84,17.49,83.75"/><path class="cls-19" d="M518.13,51C507.58,70.43,490.36,80.55,469.8,81.1,436,82,426.56,16.18,398.28,15.93c-26.69-.24-12.32,61.38-43.1,59.73a23.63,23.63,0,0,1-8.77-1.93c-29.11-12.88,1.72-56.47-30.29-52.37-7.68,1-32.19,56.25-37.81,56.49-4.74.2-19.7-53.62-26-53.53-5.61.09-8.94,41.17-13.32,41.09-5.4-.1-5.55-65.89-18.6-65.28-15.8.74-17.91,86.1-30.71,85.79-9.52-.23-10.32-48.3-26.47-51.22-15.42-2.78-23.08,40.16-47.36,43.07-35.85,4.3-32.16-34-66.66-32.35,0,0-21.09-1.85-33.3,39.24"/><path class="cls-20" d="M15.13,82.24C28,43.51,47.81,47.78,49.33,47.63,74.68,45.13,79.41,64,95.38,72.08a40,40,0,0,0,21.17,4.2c10-.57,17.28-7.33,23.69-15.71,9-11.8,15.46-26.16,24.49-25.26,3.4.34,6.17,2.6,8.56,6.12,9.05,13.28,11.28,44.36,19.09,44.52,12.84.28,15.17-83.32,30.81-84,12.84-.58,13.19,63.12,18.88,63.8,1.61.2,3.11-4.75,4.67-11.15,2.77-11.36,5.38-27.68,8.81-28.25,5.95-1,20,48.83,24.62,48,2-.38,6.48-7.53,11.77-16.37,9.23-15.43,20.81-35.44,25.91-36.26,30.51-4.89,2.34,38.6,30.34,51.38a24.94,24.94,0,0,0,8.5,2.08c16,1.69,19.83-14.51,23.91-29.74,3.54-13.2,7.27-26,19.26-26.31,18.29-.54,28.74,26.09,43.65,44.15,7.42,9,15.87,15.87,26.87,15.89,20.23.05,37.26-8.46,47.39-27"/><path class="cls-21" d="M14.38,79.82c13.6-36.37,32.05-29.7,35.1-30C74.63,47.59,79.42,62.91,96,70.09a55.43,55.43,0,0,0,21.28,4.69c9.91.28,17.28-5.37,24-13.28,9.44-11.08,15.94-25.75,25-25.58,3.42.06,6.25,2,8.77,5.32,9.58,12.54,12,44.6,20.06,44.74C208,86.23,210.52,4.4,226,3.74c12.63-.54,13.17,61.05,19.16,62.33,1.64.36,3.19-4.2,4.85-10.18,3-10.61,5.5-26.44,8.78-27.53,5.58-1.86,18.73,43.93,23.24,42.41,2-.67,6.38-7.61,11.63-15.91C302.8,40.43,314.18,23,319.58,22c29.05-5.3,3.5,37.7,30.39,50.38a26.77,26.77,0,0,0,8.24,2.23c15.55,2.44,19.63-12.62,24-26.87,3.76-12.38,7.68-24.7,19.28-25.49,17.71-1.26,28.11,22.66,43,39.53,7.38,8.35,15.72,15,26.48,15.38,19.9.64,36.74-6.27,46.45-23.91"/><path class="cls-22" d="M13.63,77.41c14.3-34,31.43-25,36-25.35,24.94-2,29.81,9.76,46.95,16,6,2.18,12.66,4.56,21.38,5.2,9.85.72,17.3-3.41,24.38-10.86,9.84-10.36,16.42-25.35,25.46-25.91,3.43-.21,6.32,1.42,9,4.53,10.08,11.81,12.63,44.83,21,45,12.92.23,15.69-79.84,31-80.45C241.22,5,242,64.5,248.24,66.4c1.68.51,3.28-3.65,5-9.2,3.13-9.88,5.6-25.19,8.75-26.83,5.17-2.68,17.46,39,21.85,36.87,2-1,6.27-7.7,11.49-15.45,9.06-13.44,20.16-28.34,25.94-29.46C349,17,326,59.14,351.75,71.72a28.58,28.58,0,0,0,8,2.38c15,3.14,19.45-10.73,24-24,4-11.57,8.08-23.42,19.29-24.68,17.15-1.92,27.49,19.25,42.41,34.92,7.34,7.72,15.59,14.19,26.1,14.86,19.57,1.24,36.23-4.07,45.51-20.8"/><path class="cls-23" d="M12.88,75c15-31.67,30.8-20.29,36.9-20.72,24.73-1.74,29.69,6.45,47.4,11.82,6.21,1.88,12.93,4.5,21.49,5.7,9.79,1.38,17.3-1.45,24.72-8.43,10.24-9.64,16.91-25,25.94-26.23,3.45-.49,6.4.82,9.19,3.73,10.6,11.07,13.31,45.07,22,45.17,13,.19,16-78.1,31.11-78.68,12.2-.47,13.13,56.85,19.71,59.38,1.71.66,3.37-3.1,5.23-8.23,3.32-9.14,5.7-23.9,8.73-26.11,4.76-3.47,16.2,34.07,20.46,31.31,2-1.29,6.16-7.77,11.35-15,9-12.45,19.74-24.86,25.95-26.07,26.37-5.1,5.81,35.93,30.48,48.4a31,31,0,0,0,7.7,2.53c14.56,3.78,19.26-8.85,24.07-21.13,4.22-10.76,8.5-22.15,19.32-23.86C421.19,26,431.47,44.41,446.41,58.9c7.3,7.08,15.45,13.34,25.71,14.33,19.24,1.85,35.71-1.87,44.57-17.68"/><path class="cls-24" d="M12.13,72.57c15.68-29.31,30.16-15.63,37.8-16.09C74.46,55,79.51,59.62,97.78,64.09c6.44,1.57,13.2,4.45,21.6,6.21,9.74,2,17.29.51,25.06-6,10.63-8.93,17.39-24.56,26.43-26.56,3.46-.76,6.47.23,9.39,3,11.13,10.32,14,45.3,23,45.38,13,.16,16.21-76.36,31.21-76.9,12-.44,13.1,54.72,20,57.9,1.74.81,3.46-2.55,5.41-7.26,3.5-8.4,5.8-22.59,8.71-25.39,4.36-4.22,14.93,29.12,19.07,25.76,2-1.61,6.05-7.86,11.21-14.52,8.87-11.46,19.66-25.27,26-22.67,25.56.25,7,35,30.53,47.4a34.68,34.68,0,0,0,7.44,2.68c14.05,4.37,19.07-7,24.12-18.25,4.45-10,8.91-20.89,19.33-23.06,16-3.33,26.21,12.4,41.17,25.7,7.25,6.44,15.32,12.51,25.33,13.81,18.92,2.46,35.19.33,43.63-14.57"/><path class="cls-25" d="M11.38,70.16c16.38-27,29.53-11,38.69-11.47,24.33-1.23,29.47-.18,48.31,3.4,6.68,1.26,13.47,4.41,21.71,6.72,9.68,2.71,17.28,2.46,25.4-3.59,11-8.22,17.88-24.16,26.91-26.88,3.48-1,6.55-.37,9.61,2.15,11.65,9.58,14.66,45.52,23.92,45.6C219,86.2,222.4,11.46,237.24,11c11.78-.41,13.09,52.59,20.27,56.43,1.77.94,3.54-2,5.6-6.29,3.68-7.67,5.92-21.28,8.67-24.69,4-4.94,13.67,24.16,17.69,20.21,2-1.93,5.93-7.94,11.07-14.06,8.77-10.46,19.39-22.51,26-19.27,24.27,1.13,8.12,34.14,30.57,46.41a39.56,39.56,0,0,0,7.17,2.84c13.55,4.91,18.9-5.1,24.18-15.39,4.68-9.15,9.32-19.62,19.35-22.24,15.44-4,25.55,9,40.55,21.08,7.19,5.81,15.18,11.68,24.94,13.29C491.87,72.37,508,71.82,516,57.83"/><path class="cls-26" d="M10.63,67.74c17.07-24.6,28.9-6.4,39.59-6.84,24.11-1,29.36-3.5,48.76-.81,6.91.95,13.74,4.37,21.82,7.22,9.63,3.4,17.26,4.41,25.73-1.16,11.41-7.51,18.38-23.78,27.41-27.2a9.64,9.64,0,0,1,9.81,1.35c12.18,8.84,15.34,45.76,24.89,45.81,13.09.08,16.73-72.88,31.41-73.34,11.57-.37,13.08,50.45,20.55,55,1.8,1.09,3.63-1.47,5.78-5.32,3.88-6.93,6.05-19.95,8.65-24,3.65-5.65,12.38,19.19,16.3,14.66,1.94-2.26,5.82-8,10.93-13.6,8.67-9.47,19.12-19.76,26-15.88,23,2,9.27,33.25,30.62,45.43a46.29,46.29,0,0,0,6.9,3c13.06,5.41,18.74-3.22,24.23-12.52,4.94-8.35,9.73-18.36,19.37-21.43,14.88-4.74,24.89,5.57,39.93,16.48,7.14,5.18,15.05,10.84,24.56,12.76C492.13,71,508,72.05,515.61,59"/><path class="cls-27" d="M9.88,65.32c17.77-22.24,28.27-2.67,40.49-2.2,23.89.9,29.25-6.83,49.21-5,7.14.64,14,4.35,21.93,7.73,9.57,4.08,17.25,6.36,26.07,1.26,11.78-6.81,18.86-23.39,27.89-27.53a9.73,9.73,0,0,1,10,.56c12.72,8.1,16,46,25.86,46,13.13,0,17-71.15,31.51-71.56,11.36-.34,13.07,48.31,20.83,53.48,1.84,1.23,3.73-.93,6-4.34,4.07-6.21,6.2-18.62,8.62-23.26,3.31-6.37,11.09,14.22,14.91,9.1A104.71,104.71,0,0,1,304,36.43c8.56-8.47,18.85-17,26-12.48,21.69,2.87,10.43,32.36,30.66,44.43a55.72,55.72,0,0,0,6.64,3.13c12.59,5.88,18.59-1.35,24.29-9.65,5.19-7.56,10.14-17.09,19.39-20.61,14.3-5.45,24.21,2.15,39.31,11.86,7.07,4.55,14.91,10,24.17,12.25,17.95,4.32,33.63,6.92,40.81-5.24"/><path class="cls-28" d="M9.13,62.91C27.59,43,36.77,64.76,50.52,65.33c23.67,1,29.13-10.16,49.66-9.24,7.37.33,14.27,4.33,22,8.24,9.51,4.78,17.23,8.3,26.41,3.68C160.78,61.89,168,45,177,40.16c3.53-1.89,6.79-2.15,10.24-.24,13.24,7.35,16.7,46.19,26.82,46.25,13.17.08,17.25-69.41,31.61-69.79,11.15-.3,13.07,46.16,21.1,52,1.88,1.37,3.83-.39,6.16-3.37,4.27-5.48,6.36-17.29,8.59-22.55,3-7.07,9.8,9.26,13.53,3.56a63.18,63.18,0,0,1,10.64-12.67c8.45-7.49,18.59-14.27,26-9.09,20.39,3.74,11.58,31.47,30.7,43.44A67.88,67.88,0,0,0,368.8,71c12.12,6.32,18.44.53,24.34-6.78,5.45-6.76,10.55-15.83,19.41-19.8,13.73-6.16,23.52-1.25,38.68,7.25,7,3.93,14.78,9.2,23.78,11.73,17.64,5,33.13,9.12,39.88-2.13"/><path class="cls-29" d="M8.38,60.49c19.15-17.54,27,6.37,42.29,7.05,23.45,1,29-13.25,50.11-13.45,7.61-.07,14.53,4.31,22.15,8.74,9.44,5.49,17.2,10.24,26.75,6.11,12.52-5.43,19.83-22.63,28.86-28.17,3.54-2.18,6.87-2.75,10.44-1,13.78,6.61,17.38,46.49,27.79,46.47,13.21,0,17.51-67.68,31.71-68,10.93-.27,13.08,44,21.38,50.53,1.92,1.51,3.93.16,6.34-2.4,4.48-4.75,6.54-15.95,8.57-21.83,2.7-7.8,8.5,4.29,12.14-2a44.06,44.06,0,0,1,10.5-12.21c8.33-6.49,18.32-11.51,26-5.69C352.56,29.21,346.19,55.17,364.2,67c2.52,1.65,4.77,2.66,6.11,3.43,11.68,6.74,18.32,2.4,24.39-3.91,5.74-6,11-14.57,19.43-19,13.17-6.87,22.82-4.63,38.06,2.65,6.94,3.31,14.65,8.37,23.4,11.2,17.31,5.6,32.61,11.33,38.94,1"/><path class="cls-30" d="M7.63,58.07C27.48,42.89,34,68.94,50.82,69.75c23.23,1.13,28.91-16.83,50.56-17.66,7.84-.3,14.79,4.3,22.26,9.25,9.37,6.2,17.18,12.17,27.09,8.53,12.89-4.74,20.3-22.25,29.34-28.5,3.56-2.46,7-3.34,10.66-1.83,14.3,5.86,18.05,46.73,28.75,46.69,13.25,0,17.77-65.94,31.81-66.23C262,19.75,264.38,61.84,273,69.05c2,1.64,4,.7,6.53-1.42,4.7-4,6.71-14.64,8.54-21.12,2.4-8.53,7.2-.67,10.75-7.56a32.69,32.69,0,0,1,10.36-11.74c8.2-5.51,18.05-8.76,26.05-2.29C353,30.4,349.08,54.61,366,66.37c2.36,1.64,4.48,2.72,5.84,3.58,11.25,7.14,18.22,4.29,24.45-1,6-5.16,11.37-13.32,19.45-18.18,12.59-7.59,22.11-8,37.44-2,6.85,2.7,14.51,7.55,23,10.68,17,6.25,32.09,13.53,38,4.1"/><path class="cls-31" d="M6.87,55.65C27.42,42.83,32.64,71,51,72c23,1.21,28.79-20.17,51-21.87,8.07-.62,15,4.3,22.36,9.75,9.3,6.92,17.16,14.11,27.44,11C165,66.73,172.56,48.93,181.61,42c3.56-2.74,7-3.95,10.86-2.63,14.84,5.1,18.73,47,29.72,46.9,13.29,0,18-64.19,31.91-64.45,10.51-.21,13.11,39.69,21.94,47.58,2,1.78,4.15,1.25,6.71-.45,4.93-3.28,6.9-13.31,8.52-20.41,2.11-9.25,5.89-5.63,9.36-13.1a25.39,25.39,0,0,1,10.22-11.28c8.06-4.54,16.69-4.5,26.07,1.1C352.12,34.31,352,54,367.76,65.7c2.2,1.62,4.2,2.78,5.58,3.73,10.84,7.52,18.12,6.19,24.5,1.84S409.62,59.21,417.3,53.9c12-8.3,21.4-11.36,36.82-6.58,6.77,2.11,14.38,6.74,22.63,10.16,16.65,6.9,31.57,15.73,37.07,7.21"/><path class="cls-32" d="M6.12,53.24c21.25-10.47,25.15,19.83,45,20.94,22.8,1.27,28.68-23.52,51.47-26.09,8.3-.94,15.28,4.29,22.47,10.26,9.21,7.64,17.14,16,27.78,13.38,13.63-3.4,21.26-21.5,30.31-29.15,3.58-3,7.11-4.54,11.07-3.42,15.37,4.35,19.41,47.21,30.69,47.12,13.34-.07,18.29-62.46,32-62.67,10.3-.18,13.13,37.53,22.22,46.1,2,1.92,4.27,1.81,6.89.52,5.17-2.52,7.09-12,8.49-19.69,1.83-10,4.59-10.6,8-18.66a20.3,20.3,0,0,1,10.08-10.81c7.91-3.58,16.47-1.93,26.08,4.49,14,9.37,16.2,27.91,30.89,39.47,2,1.61,3.92,2.84,5.31,3.88,10.45,7.89,18,8.12,24.55,4.71,6.67-3.5,12.19-10.8,19.49-16.55,11.44-9,20.67-14.7,36.2-11.19,6.69,1.51,14.23,5.92,22.24,9.64,16.32,7.56,31.05,17.92,36.13,10.31"/><path class="cls-33" d="M5.37,50.82C27.31,42.71,29.9,75.11,51.26,76.39c22.58,1.35,28.56-26.86,51.92-30.3,8.53-1.25,15.52,4.29,22.58,10.77,9.12,8.36,17.12,17.94,28.11,15.8,14-2.73,21.74-21.12,30.8-29.47,3.6-3.31,7.19-5.14,11.29-4.22,15.9,3.6,20.08,47.45,31.65,47.34,13.38-.1,18.55-60.72,32.11-60.9,10.09-.14,13.15,35.37,22.5,44.63,2.07,2.06,4.38,2.37,7.08,1.5,5.4-1.76,7.27-10.69,8.46-19C299.31,41.82,301,37,304.35,28.35c1.73-4.53,4.89-8.65,9.94-10.36,7.77-2.63,16.32.58,26.09,7.89,12.91,9.67,17.36,27,30.94,38.48,1.89,1.59,3.65,2.89,5,4,10.09,8.24,18,10.06,24.61,7.57,7-2.62,12.6-9.55,19.5-15.74,10.87-9.74,20-18,35.58-15.8,6.61.93,14.09,5.12,21.86,9.12,16,8.22,30.53,20.12,35.19,13.43"/><path class="cls-34" d="M4.62,48.4c22.63-5.76,23.9,28.74,46.79,30.2C73.77,80,79.85,48.35,103.78,44.09c8.76-1.59,15.76,4.29,22.69,11.27,9,9.09,17.1,19.86,28.45,18.23,14.38-2.07,22.21-20.74,31.29-29.79,3.6-3.6,7.26-5.75,11.49-5,16.44,2.81,20.76,47.67,32.62,47.55,13.42-.13,18.81-59,32.21-59.12,9.88-.11,13.18,33.21,22.78,43.15a7.64,7.64,0,0,0,7.26,2.47c5.63-1,7.46-9.37,8.44-18.27,1.26-11.48,2-20.52,5.2-29.76,1.7-4.85,4.75-8.76,9.8-9.89,7.62-1.7,16.26,3,26.1,11.29,11.88,10,18.52,26.13,31,37.48,1.74,1.58,3.37,3,4.78,4.19,9.73,8.61,17.87,12,24.66,10.44,7.32-1.72,13-8.29,19.52-14.92C432.35,52.94,441.31,42.12,457,43c6.53.36,13.94,4.31,21.47,8.6,15.63,8.9,30,22.32,34.25,16.54"/><path class="cls-35" d="M3.87,46C27.2,42.58,27.15,79.16,51.56,80.81c22.14,1.5,28.32-33.58,52.82-38.72,9-1.9,16,4.28,22.8,11.78,8.91,9.81,17.08,21.77,28.79,20.65,14.76-1.42,22.67-20.37,31.77-30.12,3.61-3.88,7.35-6.34,11.7-5.8,17,2.06,21.44,47.91,33.59,47.76,13.46-.15,19.07-57.24,32.31-57.33,9.67-.08,13.2,31,23.05,41.68a9.49,9.49,0,0,0,7.46,3.43c5.85-.16,7.65-8.06,8.41-17.55,1-12.24.65-25.48,3.81-35.31,1.66-5.17,4.61-8.9,9.66-9.43,7.48-.79,16.29,5.4,26.12,14.68,10.93,10.32,19.67,25.24,31,36.49,1.58,1.56,3.1,3,4.51,4.34,9.41,9,17.77,14,24.71,13.31,7.63-.79,13.4-7,19.54-14.11,9.7-11.19,18.56-24.53,34.34-25,6.46-.2,13.8,3.5,21.09,8.07,15.28,9.57,29.5,24.52,33.31,19.65"/><path class="cls-36" d="M3.12,43.57c24-1,22.66,37.59,48.59,39.45C73.64,84.6,79.91,46.12,105,40.09c21.34-5.13,30.8,36.43,52,35.36s28.41-38.23,44.17-37c17.49,1.31,22.11,48.15,34.55,48,13.5-.18,19.33-55.5,32.4-55.56,11.53,0,14.62,42.89,31,44.62,18,1.9-1.69-67,20.33-66.67,22.93.34,62.48,73.79,86.22,74.24,20.42.4,27.46-39.88,53.28-42.93C478.87,37.74,507,76.24,512,70.41"/></g><g id="_Group_3" data-name="&lt;Group&gt;" class="cls-37"><path class="cls-38" d="M511.6,54.52C501,75.68,480,89.15,462.9,91.87c-31.66,5-44.33-54.3-75.93-45.26-20.26,5.8-22.34,32.28-43.82,42.81-24.41,12-45.48-42.74-66.76-36.69-20.22,5.74-21.39,53.68-28.56,53.14-9.06-.7-8.3-77.39-16-78-7.89-.62-17.45,79.44-25.76,78.89-8.6-.57-4.85-96.52-18.17-96.89-17.2,0-19.42,20-25,37.75-2.17,7-5.84,40.52-27.6,44.23-30,5.13-47.81-50.45-75.92-45.26C38.69,50.44,38,82.58,15.6,89.42"/><path class="cls-39" d="M511.9,54.7c-10.34,20.1-31.33,32.35-48.41,34.69a24.78,24.78,0,0,1-14.66-2.48c-21.62-10.6-34.67-46.66-60.39-39.18-8.9,2.58-14.35,9.09-19.67,16.3-6.5,8.82-12.56,18.66-24.09,23.89-22.2,10.06-41.5-34.32-61.43-36a12.3,12.3,0,0,0-4.5.4C258.54,57.88,257,104,249.48,103.41c-5.78-.45-7.72-25.71-10.25-46.18-1.87-15.12-3.75-27.87-7.08-27.59-3.74.3-7.74,17-11.87,34.21-4.81,20-9.44,39.88-13.93,39.6-8.33-.54-4.94-89.74-17.78-90.09-11.26,0-16,7.16-19.64,17.86-1.77,5.17-3.24,11.26-5,17.18-1.1,3.66-2.51,13.14-6.09,21.94-3.91,9.55-10,18-21.37,19.41-7.71.94-14.67-1.86-21.42-6.47a72.65,72.65,0,0,1-6.85-5.41c-15.9-14-29.69-33.55-47.77-30.05a22.88,22.88,0,0,0-10,4.75C37.83,62.5,34.85,82.28,16,87.51"/><path class="cls-40" d="M512.19,54.89c-10.1,19-31.05,30.06-48.11,32a25.82,25.82,0,0,1-14.4-2.5c-21.52-10.29-34.46-43.05-59.76-35.57-8.69,2.55-14.16,8.76-19.6,15.51-6.69,8.3-12.86,17.39-24.1,22-21.75,9-40.58-33.34-60.69-34.91a12.83,12.83,0,0,0-4.43.4c-20.17,5.43-22.05,49.67-30,49.05-6.35-.5-8.27-25.47-11.14-44.68-2.12-14.17-4.15-25.68-7.53-24.88-3.84.9-7.82,17.31-12,33.41-4.88,18.73-9.31,35.6-13.84,35.32-8.06-.49-5-82.95-17.39-83.28-10.92,0-15.58,5.24-19.3,15.27-1.8,4.85-3.3,11-5,17-1.16,4-2.58,13.5-6.19,21.75-3.94,9-9.8,15.9-21.13,16.73-7.52.54-14.41-2.22-21.28-6.62a68.58,68.58,0,0,1-6.93-5.11C93.13,62.43,79.4,45.39,61.4,49a25.57,25.57,0,0,0-10,4.58C38,63.2,36,80.67,16.29,85.6"/><path class="cls-41" d="M512.49,55.07c-9.86,18-30.78,27.78-47.82,29.37a26.86,26.86,0,0,1-14.14-2.51C429.09,72,416.28,42.49,391.39,50c-8.46,2.52-13.95,8.43-19.51,14.72-6.89,7.79-13.17,16.12-24.13,20.22-21.3,8-39.65-32.41-59.94-33.82a13.07,13.07,0,0,0-4.35.39c-20.16,5.28-22.38,47.67-30.68,47-6.93-.55-8.81-25.24-12-43.19-2.38-13.22-4.55-23.47-8-22.16-4,1.51-7.91,17.61-12.16,32.62-4.94,17.48-9.18,31.29-13.74,31-7.79-.46-5.11-76.17-17-76.47-10.58,0-15.18,3.31-19,12.67-1.83,4.54-3.35,10.76-5.08,16.91-1.21,4.33-2.65,13.86-6.3,21.56-4,8.39-9.53,13.79-20.88,14-7.31.17-14.15-2.57-21.14-6.75a67.51,67.51,0,0,1-7-4.83C94,61,80.32,46.45,62.39,50.25a29.17,29.17,0,0,0-10,4.42c-14.25,9.23-15.3,24.39-35.75,29"/><path class="cls-42" d="M512.78,55.26c-9.61,16.89-30.5,25.5-47.52,26.71a28.36,28.36,0,0,1-13.88-2.53c-21.37-9.6-34-35.83-58.52-28.35-8.24,2.49-13.75,8.1-19.43,13.93C366.35,72.29,360,79.86,349.28,83.4c-20.86,6.93-38.71-31.47-59.19-32.72a13.47,13.47,0,0,0-4.28.39c-20.13,5.12-22.71,45.65-31.38,45-7.5-.6-9.36-25-12.92-41.69-2.62-12.27-5-21.27-8.43-19.45-4.05,2.13-8,17.92-12.3,31.82-5,16.24-9.06,27-13.65,26.75-7.52-.42-5.2-69.39-16.61-69.66-10.24,0-14.78,1.38-18.62,10.07-1.86,4.22-3.4,10.51-5.11,16.79-1.27,4.66-2.73,14.21-6.4,21.36-4,7.81-9.26,11.69-20.64,11.36-7.1-.2-13.89-2.92-21-6.89A69,69,0,0,1,111.66,72C94.75,59.61,81.24,47.56,63.37,51.47a33.7,33.7,0,0,0-10,4.25C38.24,64.59,38.2,77.45,17,81.77"/><path class="cls-43" d="M513.07,55.45c-9.37,15.82-30.22,23.23-47.23,24A30.09,30.09,0,0,1,452.22,77c-21.28-9.26-33.83-32.22-57.89-24.75-8,2.46-13.55,7.77-19.35,13.15-7.28,6.75-13.78,13.56-24.16,16.54C330.39,87.77,313,51.35,292.37,50.27a14.16,14.16,0,0,0-4.2.38c-20.11,5-23,43.65-32.09,42.93-8.07-.66-9.9-24.77-13.81-40.2-2.87-11.32-5.35-19.07-8.88-16.74-4.16,2.74-8.09,18.23-12.44,31-5.1,15-8.94,22.71-13.56,22.46-7.26-.38-5.29-62.59-16.22-62.84-9.9,0-14.38-.55-18.28,7.47-1.9,3.9-3.45,10.27-5.14,16.66-1.32,5-2.81,14.57-6.5,21.17-4,7.23-9,9.61-20.4,8.68C134,80.7,127.22,78,120,74.23A68.69,68.69,0,0,1,112.82,70C95.51,58.21,82.16,48.63,64.36,52.68a40.23,40.23,0,0,0-10,4.09c-16,8.48-15,19.06-37,23.09"/><path class="cls-44" d="M513.37,55.63c-9.13,14.76-29.94,21-46.94,21.39a32,32,0,0,1-13.36-2.55c-21.21-8.9-33.6-28.56-57.27-21.14-7.79,2.45-13.35,7.43-19.27,12.36-7.48,6.23-14.09,12.28-24.18,14.7-20,4.82-36.85-29.62-57.71-30.53a14.7,14.7,0,0,0-4.12.38c-20.09,4.8-23.37,41.64-32.79,40.88-8.65-.71-10.44-24.53-14.7-38.71-3.12-10.36-5.75-16.85-9.33-14-4.26,3.37-8.18,18.53-12.58,30.23-5.18,13.76-8.82,18.4-13.47,18.17-7-.34-5.37-55.81-15.82-56-9.57,0-14-2.47-18,4.87-1.93,3.59-3.49,10-5.17,16.54-1.37,5.32-2.89,14.91-6.6,21-4.08,6.64-8.67,7.54-20.16,6-6.67-.9-13.38-3.61-20.73-7.17A77.82,77.82,0,0,1,114,68C96.24,56.81,83.07,49.7,65.34,53.9a49.77,49.77,0,0,0-10,3.91C38.4,65.9,40.42,74.22,17.66,77.94"/><path class="cls-45" d="M513.66,55.82C504.77,69.5,484,74.53,467,74.54A34.29,34.29,0,0,1,453.92,72c-21.14-8.54-33.39-25-56.64-17.53-7.57,2.42-13.17,7.1-19.2,11.57-7.69,5.71-14.4,11-24.19,12.87-19.58,3.75-35.92-28.7-57-29.44a15.25,15.25,0,0,0-4,.37c-20.08,4.64-23.7,39.64-33.5,38.84-9.22-.76-11-24.28-15.59-37.21-3.36-9.4-6.14-14.64-9.78-11.31-4.35,4-8.28,18.85-12.73,29.43C216,82.1,212.6,83.68,207.91,83.46c-6.72-.31-5.46-49-15.43-49.22-9.23,0-13.6-4.4-17.61,2.27-2,3.28-3.53,9.78-5.2,16.41-1.42,5.66-3,15.27-6.71,20.78-4.11,6.06-8.37,5.5-19.91,3.32-6.45-1.22-13.13-4-20.59-7.31A81.55,81.55,0,0,1,115.14,66C96.94,55.44,84,50.76,66.33,55.11a63.16,63.16,0,0,0-10,3.75C38.46,66.52,41.54,72.61,18,76"/><path class="cls-46" d="M514,56c-8.64,12.61-29.37,16.46-46.34,16.06a37.73,37.73,0,0,1-12.85-2.58c-21.06-8.18-33.17-21.33-56-13.92-7.35,2.39-13,6.76-19.12,10.78-7.9,5.19-14.71,9.7-24.21,11-19.16,2.69-35-27.78-56.22-28.34a15.59,15.59,0,0,0-4,.37C275.18,53.87,271.2,87,261,86.2c-9.79-.81-11.5-24-16.48-35.72-3.6-8.43-6.54-12.42-10.23-8.59-4.45,4.62-8.38,19.16-12.87,28.64-5.35,11.3-8.56,9.81-13.27,9.6-6.46-.28-5.56-42.24-15.05-42.41-8.89,0-13.21-6.32-17.27-.33-2,3-3.57,9.53-5.23,16.28-1.47,6-3,15.64-6.81,20.59-4.16,5.48-8.07,3.48-19.67.64-6.23-1.53-12.88-4.29-20.45-7.45-3-1.27-5.65-2.47-7.41-3.4-18.68-10-31.39-12.22-49-7.73a90.37,90.37,0,0,0-10,3.59C38.51,67.12,42.65,71,18.35,74.12"/><path class="cls-47" d="M514.25,56.19c-8.4,11.55-29.09,14.22-46.05,13.4A41.92,41.92,0,0,1,455.61,67c-21-7.82-33-17.73-55.39-10.32-7.12,2.36-12.8,6.42-19,10-8.11,4.65-15,8.4-24.23,9.19C338.21,77.48,322.9,49,301.48,48.63a17,17,0,0,0-3.9.36c-20,4.3-24.35,35.62-34.9,34.75-10.36-.85-12-23.76-17.37-34.22-3.83-7.47-6.93-10.21-10.68-5.88-4.54,5.24-8.49,19.48-13,27.84-5.44,10.08-8.44,5.51-13.18,5.32-6.19-.25-5.65-35.45-14.66-35.61-8.55,0-12.82-8.24-16.93-2.92-2,2.65-3.61,9.29-5.26,16.16-1.51,6.33-3.13,16-6.91,20.39-4.2,4.9-7.77,1.49-19.43-2-6-1.82-12.63-4.61-20.31-7.58-3.14-1.21-5.8-2.3-7.49-3.12C98.24,52.76,85.82,52.9,68.3,57.54c-3.49.92-6.73,2.28-10.06,3.42C38.55,67.69,43.77,69.39,18.69,72.2"/><path class="cls-48" d="M514.54,56.38c-8.16,10.48-28.8,12-45.75,10.74a46.9,46.9,0,0,1-12.33-2.6c-20.93-7.45-32.76-14.12-54.77-6.71-6.9,2.33-12.62,6.07-18.95,9.21-8.34,4.12-15.36,7.11-24.25,7.35-18.33.52-33.12-26-54.73-26.15a18,18,0,0,0-3.82.36c-20,4.12-24.69,33.61-35.61,32.71s-12.53-23.5-18.26-32.74c-4-6.5-7.32-8-11.13-3.16-4.63,5.87-8.61,19.8-13.15,27.05-5.55,8.86-8.32,1.2-13.09,1-5.93-.22-5.74-28.67-14.27-28.8-8.21,0-12.43-10.16-16.59-5.52-2.09,2.33-3.65,9-5.29,16-1.56,6.67-3.22,16.34-7,20.2-4.24,4.32-7.48-.48-19.18-4.73-5.8-2.11-12.39-4.94-20.17-7.72-3.24-1.15-6-2.14-7.57-2.83C98.85,51.49,86.73,54,69.29,58.75,65.84,59.7,62.6,61,59.22,62,38.58,68.23,44.88,67.78,19,70.29"/><path class="cls-49" d="M514.84,56.57c-7.92,9.4-28.52,9.77-45.46,8.07A53.79,53.79,0,0,1,457.31,62c-20.87-7.07-32.55-10.51-54.14-3.1-6.68,2.3-12.44,5.73-18.88,8.42-8.56,3.59-15.67,5.8-24.27,5.52-17.92-.59-32.18-25.06-54-25.06a19.45,19.45,0,0,0-3.75.35c-20,3.94-25,31.61-36.31,30.67-11.51-1-13-23.24-19.15-31.24-4.25-5.53-7.7-5.78-11.58-.45-4.72,6.49-8.74,20.12-13.29,26.25-5.68,7.65-8.19-3.09-13-3.25-5.66-.19-5.82-21.88-13.88-22-7.88,0-12.05-12.09-16.25-8.12-2.13,2-3.68,8.8-5.32,15.9s-3.31,16.7-7.12,20c-4.3,3.73-7.21-2.42-18.94-7.41-5.6-2.38-12.14-5.27-20-7.86-3.34-1.1-6.13-2-7.65-2.55C99.42,50.28,87.65,55,70.27,60c-3.39,1-6.65,2.19-10.08,3.09C38.61,68.74,46,66.17,19.38,68.38"/><path class="cls-50" d="M515.13,56.75c-7.67,8.34-28.24,7.57-45.16,5.42a65.56,65.56,0,0,1-11.82-2.63c-20.8-6.69-32.33-6.9-53.51.51-6.46,2.27-12.26,5.37-18.8,7.64-8.78,3-16,4.48-24.28,3.67-17.51-1.7-31.26-24.16-53.25-24a20.27,20.27,0,0,0-3.66.35c-20,3.76-25.35,29.59-37,28.62-12.08-1-13.48-23-20-29.74-4.44-4.58-8.09-3.56-12,2.27-4.81,7.11-8.9,20.43-13.44,25.45-5.81,6.43-8.06-7.4-12.9-7.55-5.39-.16-5.91-15.09-13.49-15.17s-11.68-14-15.91-10.72c-2.18,1.7-3.72,8.55-5.35,15.78s-3.4,17-7.22,19.81c-4.35,3.15-6.95-4.34-18.7-10.09a128,128,0,0,0-19.9-8c-3.43-1-6.28-1.79-7.72-2.26-21-7-32.37-.07-49.67,5-3.34,1-6.62,2.14-10.09,2.93-22.53,5.12-14.06.45-41.45,2.35"/><path class="cls-51" d="M515.42,56.94c-7.43,7.27-28,5.36-44.86,2.75A83.82,83.82,0,0,1,459,57.06c-20.74-6.31-32.13-3.31-52.89,4.12-6.23,2.22-12.08,5-18.72,6.84-9,2.49-16.31,3.17-24.3,1.84C346,67,332.77,46.58,310.59,47a22.39,22.39,0,0,0-3.59.34c-20,3.57-25.67,27.59-37.72,26.58-12.65-1.06-13.92-22.74-20.93-28.25-4.62-3.62-8.48-1.34-12.48,5-4.9,7.73-9.07,20.74-13.58,24.65-6,5.2-7.94-11.7-12.81-11.83-5.12-.13-6-8.3-13.1-8.36s-11.31-16-15.57-13.32c-2.22,1.38-3.75,8.31-5.37,15.65-1.7,7.67-3.51,17.4-7.33,19.62-4.41,2.56-6.72-6.24-18.46-12.77a87.53,87.53,0,0,0-19.76-8.14c-3.53-1-6.45-1.6-7.8-2-21.6-6.05-32.62,3-49.84,8.23a99.72,99.72,0,0,1-10.1,2.76C38.67,69.7,48.22,63,20.06,64.55"/><path class="cls-52" d="M515.72,57.13c-7.19,6.2-27.69,3.17-44.57.09-4-.74-7.87-1.67-11.3-2.65-20.69-5.91-31.93.26-52.27,7.73-6,2.18-11.9,4.64-18.64,6-9.22,1.93-16.62,1.84-24.32,0-16.66-4-29.38-22.4-51.75-21.78a23.72,23.72,0,0,0-3.51.34c-20,3.38-26,25.58-38.43,24.54-13.23-1.12-14.35-22.54-21.82-26.76-4.78-2.7-8.86.87-12.93,7.7-5,8.36-9.27,21-13.72,23.86-6.19,3.94-7.81-16-12.72-16.12s-6.09-1.52-12.71-1.55c-6.86,0-10.94-17.9-15.23-15.91-2.28,1-3.79,8.06-5.4,15.52-1.74,8-3.6,17.74-7.44,19.42-4.46,2-6.5-8.12-18.21-15.46a67.1,67.1,0,0,0-19.62-8.27c-3.63-.91-6.62-1.41-7.88-1.7-22.25-5-32.87,6-50,11.42A70.2,70.2,0,0,1,63.12,66.2c-24.41,3.93-13.78-4.86-42.72-3.56"/><path class="cls-53" d="M516,57.31c-6.95,5.14-27.41,1-44.27-2.57-4-.83-7.69-1.76-11.05-2.66C440.07,46.58,429,56,409.06,63.42c-5.8,2.15-11.73,4.28-18.57,5.26a52,52,0,0,1-24.33-1.83c-16.23-5.14-28.46-21.51-51-20.68a27.46,27.46,0,0,0-3.44.33c-19.94,3.19-26.33,23.58-39.13,22.5-13.8-1.17-14.77-22.38-22.71-25.27-4.94-1.79-9.23,3.09-13.38,10.42-5.06,9-9.48,21.27-13.86,23.06-6.42,2.63-7.69-20.31-12.63-20.4-4.58-.08-6.17,5.27-12.32,5.26-6.52,0-10.57-19.86-14.89-18.51-2.33.72-3.82,7.81-5.43,15.39-1.78,8.34-3.7,18.08-7.54,19.23-4.52,1.36-6.31-10-18-18.14a54.14,54.14,0,0,0-19.48-8.41c-3.73-.84-6.78-1.22-8-1.41-22.9-3.73-33.12,9-50.19,14.6A55.45,55.45,0,0,1,64.1,67.25c-25.36,3.3-13.65-7.53-43.35-6.53"/><path class="cls-54" d="M516.3,57.5c-6.7,4.06-27.15-1.16-44-5.23-3.85-.93-7.5-1.87-10.78-2.68-20.57-5.09-31.51,7.48-51,15A66.48,66.48,0,0,1,392,69a51.55,51.55,0,0,1-24.35-3.67C351.91,59,340.17,44.7,317.43,45.76a29.88,29.88,0,0,0-3.36.33C294.13,49,287.4,67.65,274.23,66.54c-14.37-1.22-15.21-22.26-23.6-23.77-5.12-.92-9.63,5.3-13.83,13.13-5.15,9.61-9.68,21.46-14,22.27-6.63,1.23-7.56-24.63-12.52-24.69-4.33-.07-6.27,12.05-11.94,12.06-6.18,0-10.2-21.82-14.55-21.1-2.37.39-3.85,7.57-5.46,15.26-1.81,8.69-3.79,18.41-7.64,19-4.58.75-6.16-11.83-17.73-20.82a45.52,45.52,0,0,0-19.34-8.55,75,75,0,0,0-8-1.13C102.05,46,92.2,60.29,75.21,66A45.76,45.76,0,0,1,65.08,68.3c-26.29,2.64-13.51-10.19-44-9.49"/><path class="cls-19" d="M516.6,57.69c-7.91,3.66-36.74-6.61-54.21-10.58-26.26-6-36.58,21.52-68.79,22.24-31.93.72-40.72-25.87-73.89-24-22.47,1.27-29.56,19.94-43.83,18.73-14.95-1.27-15.69-22.17-24.49-22.27-11.85-.14-20.61,37.58-28.43,37.31-6.79-.23-7.44-28.93-12.43-29C206.47,50.11,204.17,69,199,69c-5.84,0-9.82-23.79-14.21-23.7-5.21.1-6,33.78-13.24,34-6.45.18-6.61-26.81-36.69-32.19a54.43,54.43,0,0,0-8.11-.84c-28.49-.72-36.61,21.35-60.68,23.08-27.21,2-13.37-12.85-44.62-12.45"/><path class="cls-55" d="M515.87,57.78c-7.78,3.11-35.49-7-52.71-10.8-21-4.57-31.59,12.14-51.74,18.92a52.67,52.67,0,0,1-16.72,2.74c-17.29.08-27.67-8-39.57-14.48-9.56-5.24-19.34-9.46-33.86-8.43a43.19,43.19,0,0,0-19.91,6.67c-8.88,5.35-15,11.82-23.83,10.93-11-1.08-14.52-12.61-19.42-18.26-1.58-1.82-3.26-3-5.41-3C243.15,42,235.76,63.9,229,73.4c-1.93,2.71-3.73,4.45-5.49,4.35-7-.41-7.92-28.08-13.2-28.12-4.55,0-7,18.79-12.63,18.82-6.14,0-10.13-23.21-15.06-23.15-5.71.07-7.06,32.43-14.7,32.81-2.18.11-3.62-2.64-5.88-6.43-4.77-8-11.79-21.15-31.69-24.78a53.06,53.06,0,0,0-8.16-.85c-27.5-.68-35.56,20.39-58.77,22.25-25.94,2-13.29-11.83-43.23-11.44"/><path class="cls-56" d="M515.14,57.88c-7.66,2.54-34.24-7.43-51.2-11C443,42.5,432.66,59.24,412.42,65.56a51.94,51.94,0,0,1-16.62,2.37c-16.9-.23-27.06-8.38-39.31-14.5-9.81-4.93-19.41-8.55-33.66-7.33-8,.67-14.26,3.42-19.82,6.55-9,5-15.14,10.93-23.83,9.93-10.78-1.24-14.57-12.17-19.74-17.52-1.63-1.68-3.3-2.85-5.44-2.83-9.9.12-17.33,21.18-24.41,30.13-2,2.52-3.78,4.15-5.56,4-7.29-.57-8.4-27.21-14-27.25-5,0-7.71,18.73-13.71,18.76-6.44,0-10.43-22.63-15.91-22.6-6.21,0-8.1,31.07-16.17,31.65-2.24.16-3.7-2.48-6.14-6-5.39-7.69-12.67-20.64-32.31-24.29a54.14,54.14,0,0,0-8.2-.86c-26.52-.59-34.5,19.51-56.86,21.42C36.11,69.36,47.55,56.44,18.93,56.83"/><path class="cls-57" d="M514.42,58c-7.54,2-33-7.88-49.71-11.24-20.82-4.19-31,12.59-51.29,18.48a51.61,51.61,0,0,1-16.52,2c-16.5-.56-26.45-8.78-39-14.53-10.06-4.62-19.5-7.61-33.46-6.22-7.84.78-14,3.43-19.75,6.41-9,4.72-15.24,10.06-23.82,8.93-10.55-1.38-14.6-11.72-20.05-16.76-1.67-1.56-3.35-2.66-5.47-2.61-10.25.22-17.72,20.46-25.11,28.88-2,2.32-3.85,3.85-5.64,3.67-7.54-.75-8.88-26.36-14.71-26.39-5.55,0-8.39,18.67-14.8,18.7-6.75,0-10.74-22.05-16.77-22.06-6.71,0-9.13,29.71-17.62,30.49-2.3.21-3.81-2.3-6.4-5.47-6.06-7.4-13.57-20.13-32.94-23.78a51.66,51.66,0,0,0-8.23-.88c-25.55-.53-33.46,18.59-55,20.59C34.74,68.38,45,56.41,17.67,56.8"/><path class="cls-58" d="M513.69,58.07c-7.42,1.43-31.75-8.31-48.2-11.47-20.75-4-30.69,12.8-51.07,18.27A51.13,51.13,0,0,1,398,66.52c-16.11-.87-25.86-9.18-38.79-14.54-10.3-4.32-19.57-6.7-33.26-5.12-7.63.88-13.83,3.45-19.66,6.28-9.09,4.41-15.36,9.18-23.83,7.93-10.3-1.52-14.62-11.28-20.35-16-1.72-1.42-3.41-2.46-5.5-2.39C246,43,238.53,62.41,230.8,70.3c-2.09,2.13-3.9,3.54-5.7,3.33-7.8-.93-9.36-25.51-15.48-25.53s-9.07,18.61-15.89,18.64c-7,0-11-21.47-17.61-21.51C168.91,45.2,166,73.58,157,74.55c-2.35.26-3.93-2.12-6.66-5-6.76-7.12-14.46-19.61-33.56-23.28a51.4,51.4,0,0,0-8.27-.89c-24.57-.48-32.4,17.67-53,19.77-22.11,2.24-13.07-8.79-39.07-8.4"/><path class="cls-59" d="M513,58.16c-7.29.87-30.5-8.73-46.7-11.69-20.66-3.77-30.4,13-50.84,18a50.47,50.47,0,0,1-16.31,1.29c-15.71-1.22-25.26-9.55-38.52-14.56-10.56-4-19.65-5.79-33.07-4-7.43,1-13.6,3.46-19.58,6.14-9.14,4.11-15.46,8.31-23.82,6.94C274.06,58.66,269.49,49.47,263.46,45c-1.76-1.29-3.46-2.25-5.53-2.17-11,.47-18.44,19-26.53,26.4-2.13,1.93-4,3.23-5.77,3-8-1.11-9.84-24.65-16.24-24.66s-9.74,18.55-17,18.57S181.08,45.28,174,45.21c-7.71-.06-11.2,27-20.56,28.15-2.41.3-4.08-1.93-6.91-4.5C139,62,131.14,49.76,112.3,46.07a49.86,49.86,0,0,0-8.31-.9C80.4,44.73,72.64,61.91,52.85,64.11c-20.83,2.31-13-7.77-37.68-7.38"/><path class="cls-60" d="M512.23,58.26c-7.17.31-29.25-9.15-45.19-11.91-20.59-3.56-30.11,13.19-50.62,17.83a49.68,49.68,0,0,1-16.21.92c-15.32-1.54-24.65-9.94-38.26-14.58-10.8-3.68-19.72-4.87-32.86-2.91-7.24,1.09-13.39,3.49-19.51,6-9.19,3.81-15.56,7.44-23.81,5.93C276,57.77,271.13,49.15,264.8,45c-1.79-1.16-3.51-2.05-5.56-1.94-11.33.59-18.78,18.33-27.23,25.14-2.17,1.75-4,2.93-5.85,2.65-8.3-1.3-10.32-23.79-17-23.81-7,0-10.43,18.5-18.06,18.52S179.47,45.3,171.8,45.19c-8.21-.09-12.24,25.61-22,27-2.47.35-4.26-1.72-7.18-4-8.32-6.55-16.24-18.59-34.8-22.28A48.91,48.91,0,0,0,99.44,45c-22.61-.4-30.29,15.81-49.23,18.11-19.56,2.37-12.93-6.75-36.3-6.36"/><path class="cls-61" d="M511.51,58.35c-7.05-.24-28-9.57-43.69-12.13C447.3,42.87,438,59.61,417.42,63.83a48.19,48.19,0,0,1-16.11.56c-14.92-1.86-24.05-10.34-38-14.59-11.05-3.38-19.8-4-32.67-1.81-7,1.18-13.16,3.51-19.42,5.88-9.25,3.52-15.67,6.57-23.81,4.94-9.59-1.92-14.63-10-21.29-13.78a9.94,9.94,0,0,0-5.58-1.73c-11.69.72-19.1,17.63-27.94,23.9-2.2,1.56-4.07,2.62-5.91,2.3-8.56-1.49-10.8-22.93-17.76-22.94-7.53,0-11.1,18.44-19.14,18.46s-12-19.71-20.16-19.85C160.93,45,156.36,69.4,146.15,71c-2.52.39-4.44-1.51-7.43-3.54-9.17-6.23-17.14-18.08-35.43-21.79a48.45,48.45,0,0,0-8.39-.93C73.27,44.36,65.66,59.61,47.57,62c-18.28,2.42-12.85-5.73-34.91-5.35"/><path class="cls-62" d="M510.78,58.45c-6.92-.81-26.77-10-42.19-12.35C448.16,43,439.05,59.67,418.42,63.49a47,47,0,0,1-16,.19C387.89,61.5,379,53,364.68,49.07,353.39,46,344.8,46,332.21,48.37c-6.83,1.28-12.93,3.53-19.34,5.75-9.29,3.22-15.78,5.7-23.81,3.94-9.34-2.06-14.61-9.58-21.59-13a10.66,10.66,0,0,0-5.61-1.5c-12.05.85-19.41,16.94-28.65,22.65-2.23,1.37-4.13,2.31-6,2-8.81-1.68-11.28-22.08-18.52-22.08-8,0-11.78,18.38-20.22,18.4-8.25,0-12.26-19.13-21-19.3C158.26,45,153.16,68,142.53,69.8c-2.59.43-4.65-1.28-7.7-3.06-10-5.86-18-17.56-36.05-21.28a46.24,46.24,0,0,0-8.43-1C69.7,44.18,62.16,58.46,44.93,61c-17,2.47-12.78-4.71-33.52-4.33"/><path class="cls-63" d="M510.05,58.54c-6.8-1.36-25.52-10.4-40.68-12.57C449,43.05,440.12,59.73,419.42,63.15a46,46,0,0,1-15.9-.18c-14.13-2.5-22.84-11.13-37.47-14.63-11.55-2.76-20-2.15-32.27.4-6.64,1.38-12.71,3.56-19.26,5.62-9.35,2.94-15.89,4.84-23.81,2.94-9.1-2.18-14.58-9.17-21.9-12.29a11.9,11.9,0,0,0-5.64-1.28c-12.41,1-19.7,16.27-29.35,21.4-2.26,1.2-4.19,2-6.06,1.63C218.7,64.88,216,45.53,208.48,45.54c-8.52,0-12.45,18.32-21.3,18.34-8.55,0-12.56-18.55-21.86-18.75C155.6,44.93,150,66.6,138.9,68.61c-2.64.48-4.85-1-8-2.58C120,60.59,112,49,94.27,45.25a45.74,45.74,0,0,0-8.47-1c-19.67-.3-27.13,13-43.5,15.62-15.74,2.51-12.72-3.69-32.15-3.32"/><path class="cls-64" d="M509.32,58.64c-6.67-1.92-24.28-10.81-39.18-12.8-20.28-2.69-29,13.94-49.72,17a44.7,44.7,0,0,1-15.8-.53c-13.74-2.82-22.23-11.54-37.21-14.66-11.79-2.45-20-1.24-32.07,1.51-6.44,1.47-12.47,3.59-19.18,5.49-9.39,2.66-16,4-23.8,1.94-8.87-2.31-14.56-8.79-22.21-11.54a13.14,13.14,0,0,0-5.68-1.07c-12.75,1.14-20,15.63-30.05,20.16-2.28,1-4.25,1.7-6.13,1.28C219,63.3,216.06,45,208.26,45c-9,0-13.14,18.26-22.39,18.28-8.85,0-12.87-18-22.72-18.2-10.21-.23-16.39,20.09-27.87,22.31-2.7.52-5.07-.77-8.22-2.09-11.86-5-19.81-16.54-37.3-20.29a45.21,45.21,0,0,0-8.5-1c-18.7-.27-26.08,12.06-41.6,14.79C25.2,61.41,27,56.18,8.9,56.56"/><path class="cls-65" d="M508.6,58.73c-6.56-2.48-23-11.22-37.68-13-20.21-2.48-28.68,14.11-49.5,16.74a43.41,43.41,0,0,1-15.69-.9c-13.35-3.14-21.63-12-37-14.67-12-2.18-20.11-.34-31.88,2.61-6.23,1.56-12.24,3.63-19.1,5.36-9.43,2.37-16.1,3.11-23.79.94-8.63-2.44-14.53-8.42-22.52-10.8a14.85,14.85,0,0,0-5.71-.84c-13.11,1.28-20.25,15-30.76,18.91-2.3.85-4.3,1.39-6.19.94-9.56-2.28-12.72-19.51-20.8-19.5-9.51,0-13.81,18.21-23.48,18.22-9.14,0-13.16-17.38-23.56-17.64-10.71-.26-17.43,18.7-29.34,21.14-2.76.57-5.27-.5-8.47-1.61-12.79-4.44-20.7-16-37.92-19.78a43.44,43.44,0,0,0-8.55-1C59,43.61,51.69,55,37,57.81c-13.19,2.57-12.57-1.66-29.37-1.28"/><path class="cls-66" d="M507.87,58.83c-6.43-3-21.79-11.63-36.18-13.24-20.12-2.25-28.39,14.29-49.27,16.52a41.49,41.49,0,0,1-15.59-1.26c-12.95-3.45-21-12.36-36.69-14.69-12.28-1.87-20.19.56-31.67,3.72-6,1.65-12,3.66-19,5.22-9.48,2.11-16.21,2.25-23.8-.06-8.39-2.55-14.49-8.06-22.82-10a16.88,16.88,0,0,0-5.74-.62c-13.47,1.44-20.52,14.4-31.46,17.66-2.33.7-4.36,1.09-6.27.61C219.55,60.15,216.16,44,207.8,44c-10,0-14.49,18.16-24.56,18.16-9.44,0-13.47-16.8-24.41-17.1-11.22-.29-18.47,17.32-30.81,20-2.81.6-5.48-.22-8.73-1.13C105.58,60.07,97.7,48.41,80.75,44.63a43.7,43.7,0,0,0-8.59-1c-16.73-.2-24,10.15-37.78,13.14-11.92,2.59-12.5-.64-28-.27"/><path class="cls-67" d="M507.14,58.92c-6.31-3.59-20.55-12-34.67-13.46-20.05-2-28.11,14.46-49.05,16.31a40.14,40.14,0,0,1-15.49-1.63c-12.55-3.76-20.41-12.76-36.42-14.71C359,43.87,351.24,46.9,340,50.25a185.39,185.39,0,0,1-18.94,5.1c-9.52,1.84-16.32,1.39-23.79-1.06-8.15-2.67-14.46-7.72-23.14-9.3a19.48,19.48,0,0,0-5.76-.41c-13.82,1.6-20.79,13.83-32.17,16.42a13.16,13.16,0,0,1-6.34.26c-10-2.69-13.67-17.8-22.31-17.77-10.51,0-15.17,18.1-25.65,18.1-9.75,0-13.77-16.22-25.26-16.55C145,44.72,137.16,61,124.4,63.86c-2.87.65-5.68.07-9-.65-14.63-3.19-22.49-15-39.17-18.79a42.46,42.46,0,0,0-8.63-1c-15.75-.18-22.91,9.17-35.87,12.32-10.64,2.58-12.42.37-26.6.74"/><path class="cls-68" d="M506.41,59c-6.18-4.16-19.3-12.44-33.17-13.68-20-1.79-27.82,14.62-48.82,16.08a38.59,38.59,0,0,1-15.39-2c-12.16-4.07-19.81-13.15-36.16-14.73-12.77-1.25-20.35,2.37-31.28,5.93a121.43,121.43,0,0,1-18.85,5A44.4,44.4,0,0,1,299,53.54c-7.92-2.8-14.44-7.4-23.45-8.56a22.62,22.62,0,0,0-5.79-.18C255.53,46.56,248.64,58.08,236.84,60a14.94,14.94,0,0,1-6.41-.08C220.12,57,216.27,43,207.35,43c-11,0-15.85,18-26.73,18-10.05,0-14.08-15.64-26.11-16-12.22-.36-20.55,14.54-33.74,17.65-2.93.69-5.88.37-9.24-.17C96,60,88.14,48,71.73,44.22a40.55,40.55,0,0,0-8.66-1C48.29,43,41.2,51.35,29.1,54.67c-9.38,2.56-12.35,1.39-25.21,1.76"/><path class="cls-69" d="M505.68,59.11c-6.05-4.71-18.06-12.84-31.66-13.9-19.9-1.55-27.53,14.79-48.6,15.87a36.78,36.78,0,0,1-15.28-2.36c-11.78-4.36-19.21-13.55-35.9-14.74-13-.95-20.43,3.25-31.08,7a91.19,91.19,0,0,1-18.78,4.83c-9.62,1.31-16.54-.32-23.78-3.06-7.69-2.9-14.42-7.08-23.76-7.81A27.53,27.53,0,0,0,271,45c-14.53,1.93-21.36,12.76-33.58,13.92a16.91,16.91,0,0,1-6.48-.42c-10.55-3.11-14.63-16.08-23.84-16-11.5,0-16.52,18-27.81,18-10.35,0-14.38-15.06-27-15.45s-21.59,13.15-35.2,16.48a27.5,27.5,0,0,1-9.51.32C91.22,60.08,83.37,47.83,67.22,44a40.05,40.05,0,0,0-8.7-1c-13.8-.15-20.83,7.15-32.06,10.66C18.35,56.15,14.18,56,2.63,56.39"/><path class="cls-70" d="M505,59.21C499,53.94,488.14,46,474.79,45.09,455,43.8,447.55,60,426.41,60.73A35.52,35.52,0,0,1,411.24,58c-11.38-4.68-18.6-14-35.64-14.77-13.26-.64-20.52,4.13-30.88,8.13a71.56,71.56,0,0,1-18.7,4.7c-9.66,1.06-16.65-1.16-23.77-4-7.46-3-14.41-6.78-24.07-7.06a33.71,33.71,0,0,0-5.85.26C257.44,47.33,250.67,57.48,238,57.9a19.76,19.76,0,0,1-6.55-.76C220.7,53.81,216.38,41.91,206.9,42c-12,.06-17.21,17.93-28.9,17.93-10.65,0-14.69-14.48-27.82-14.9s-22.63,11.74-36.66,15.31a32.31,32.31,0,0,1-9.76.8C86.47,60.17,78.59,47.64,62.71,43.8A38.88,38.88,0,0,0,54,42.74c-12.82-.11-19.8,6.09-30.15,9.83C17,55.05,11.62,56,1.38,56.36"/><path class="cls-71" d="M504.23,59.3c-5.81-5.83-15.58-13.63-28.66-14.34-19.75-1.07-27,15.1-48.16,15.43C405.18,60.72,401,43.12,377,42.52c-20.29-.5-26.1,11.87-49.3,13.81C307.92,58,299.17,44.62,279.52,45s-26.3,12.29-40.87,11.91c-16.19-.42-20.47-15.48-32-15.43-12.49.06-17.88,17.87-30,17.86-11,0-15-13.89-28.67-14.34-16.67-.56-27.77,15.53-48.15,15.43C78.65,60.28,71.4,42.67,49.42,42.52,30.52,42.4,24,55.35.13,56.33"/></g></g></g></g></g></svg>